<svg height="461pt" viewBox="0 -15 461.265 461" width="461pt" xmlns="http://www.w3.org/2000/svg"><path d="m7.683594 7.808594h445.632812v322.699218h-445.632812zm0 0" fill="#aabece"/><path d="m38.417969 192.207031h84.515625v61.46875h-84.515625zm0 0" fill="#e9686a"/><path d="m299.652344 107.691406c0 38.191406-30.960938 69.148438-69.152344 69.148438s-69.152344-30.957032-69.152344-69.148438 30.960938-69.152344 69.152344-69.152344 69.152344 30.960938 69.152344 69.152344zm0 0" fill="#cfdfe8"/><g fill="#fff"><path d="m230.5 161.472656v-15.363281c6.738281 0 13.363281-1.769531 19.199219-5.132813l7.699219 13.292969c-8.175782 4.722657-17.453126 7.207031-26.898438 7.203125zm0 0"/><path d="m270.582031 143.546875-11.449219-10.246094c14.144532-15.8125 12.792969-40.097656-3.015624-54.242187-7.046876-6.300782-16.164063-9.785156-25.617188-9.785156v-15.367188c29.703125 0 53.78125 24.078125 53.785156 53.78125 0 13.230469-4.878906 26-13.703125 35.859375zm0 0"/><path d="m122.933594 207.574219h299.652344v30.734375h-299.652344zm0 0"/><path d="m61.46875 243.054688v-40.230469l40.226562 20.117187zm0 0"/></g><path d="m215.132812 92.324219 30.734376 15.367187-30.734376 15.367188zm0 0" fill="#e9686a"/><path d="m7.683594 284.40625h445.632812v46.101562h-445.632812zm0 0" fill="#394d5c"/><path d="m207.449219 330.507812h46.101562v61.464844h-46.101562zm0 0" fill="#aabece"/><path d="m161.351562 391.972656h138.300782v30.734375h-138.300782zm0 0" fill="#394d5c"/><path d="m0 338.191406h199.765625v46.097656h-46.097656v46.101563h153.667969v-46.101563h-46.101563v-46.097656h199.765625v-338.066406h-461zm291.96875 61.464844v15.367188h-122.9375v-15.367188zm-76.835938-15.367188v-46.097656h30.734376v46.097656zm-199.765624-368.796874h380.984374l-40.667968 40.667968 10.867187 10.863282 51.53125-51.535157h16.6875l-40.667969 40.667969 10.863282 10.863281 40.667968-40.664062v250.367187h-430.265624zm0 276.597656h430.265624v30.734375h-430.265624zm0 0"/><path d="m230.5 184.523438c42.433594 0 76.832031-34.398438 76.832031-76.832032s-34.398437-76.832031-76.832031-76.832031-76.832031 34.398437-76.832031 76.832031c.050781 42.414063 34.417969 76.78125 76.832031 76.832032zm0-138.300782c33.949219 0 61.46875 27.519532 61.46875 61.46875 0 33.945313-27.519531 61.464844-61.46875 61.464844s-61.46875-27.519531-61.46875-61.464844c.039062-33.933594 27.539062-61.429687 61.46875-61.46875zm0 0"/><path d="m230.5 146.109375v15.363281c9.445312.003906 18.722656-2.480468 26.898438-7.203125l-7.699219-13.292969c-5.835938 3.363282-12.460938 5.132813-19.199219 5.132813zm0 0"/><path d="m268.917969 107.691406c.007812 9.449219-3.476563 18.570313-9.785157 25.609375l11.449219 10.246094c19.808594-22.132813 17.917969-56.132813-4.21875-75.9375-9.859375-8.824219-22.628906-13.703125-35.863281-13.703125v15.367188c21.207031.027343 38.390625 17.210937 38.417969 38.417968zm0 0"/><path d="m61.46875 202.824219v40.230469l40.226562-20.113282zm0 0"/><path d="m207.449219 79.890625v55.597656l55.601562-27.796875zm0 0"/><path d="m130.617188 184.523438h-99.882813v76.832031h99.882813v-15.363281h299.652343v-46.101563h-299.652343zm-15.367188 61.46875h-69.152344v-46.101563h69.152344zm299.652344-30.734376v15.367188h-284.285156v-15.367188zm0 0"/></svg>